<?xml version="1.0" encoding="UTF-8"?><svg id="Layer_1" xmlns="http://www.w3.org/2000/svg" viewBox="0 0 546.66 172.43"><defs><style>.cls-1{fill:#f59b24;}.cls-1,.cls-2,.cls-3,.cls-4,.cls-5,.cls-6{stroke-width:0px;}.cls-2{fill:#313131;}.cls-3{fill:#ffdb33;}.cls-4{fill:#fcd7b8;}.cls-5{fill:#ec6643;}.cls-6{fill:#ef9ec4;}</style></defs><g id="_Radial_Repeat_"><path class="cls-6" d="m110.85,30.54c-15.63,5.11-24.7,20.26-19.59,35.89l2.85,8.72,14.58-4.77-1.32-4.03c-2.56-7.81,1.71-16.22,9.52-18.78l29.08-9.51-5.62-17.18-29.51,9.65Z"/><circle class="cls-6" cx="123.62" cy="63.24" r="12.63" transform="translate(-14.85 73.66) rotate(-31.4)"/></g><g id="_Radial_Repeat_-2"><path class="cls-5" d="m48.34,31.09c.03,16.45,11.64,29.75,28.08,29.72l9.18-.02-.03-15.34h-4.24c-8.22.02-14.9-6.63-14.92-14.85l-.06-30.6-18.07.04.06,31.05Z"/><circle class="cls-5" cx="83.4" cy="29.04" r="12.63" transform="translate(-4.46 20.11) rotate(-13.4)"/></g><g id="_Radial_Repeat_-3"><path class="cls-4" d="m29.55,90.7c15.65,5.05,31.89-1.87,36.94-17.53l2.82-8.73-14.6-4.71-1.3,4.04c-2.53,7.83-10.92,12.12-18.74,9.6l-29.12-9.4L0,81.16l29.55,9.54Z"/><circle class="cls-4" cx="38.44" cy="56.73" r="12.63" transform="translate(-21.2 90.49) rotate(-85.4)"/></g><g id="_Radial_Repeat_-4"><path class="cls-3" d="m80.44,126.99c9.64-13.32,8.07-30.91-5.25-40.55l-7.44-5.38-8.99,12.43,3.44,2.49c6.66,4.82,8.15,14.13,3.33,20.79l-17.94,24.79,14.64,10.59,18.2-25.16Z"/><circle class="cls-3" cx="50.88" cy="108.05" r="12.63" transform="translate(-68.43 113.49) rotate(-67.4)"/></g><g id="_Radial_Repeat_-5"><path class="cls-1" d="m130.68,89.81c-9.69-13.29-26.9-17.23-40.19-7.54l-7.41,5.41,9.04,12.39,3.43-2.5c6.64-4.85,15.96-3.39,20.8,3.25l18.04,24.72,14.6-10.65-18.3-25.09Z"/><circle class="cls-1" cx="103.53" cy="112.07" r="12.63" transform="translate(-48.94 117.73) rotate(-49.4)"/></g><path class="cls-2" d="m167.78,73.75v-33.13h19.28v32.65c0,8.77,7.11,15.88,15.88,15.88h4.53v16.36h-9.79c-17.54,0-29.9-14.22-29.9-31.77Z"/><path class="cls-2" d="m213.47,105.52V40.63h43.64v15.14h-24.83v9.31h19.37v14.95h-19.37v10.35h24.83v15.14h-43.64Z"/><path class="cls-2" d="m503.02,105.52V40.63h43.64v15.14h-24.83v9.31h19.37v14.95h-19.37v10.35h24.83v15.14h-43.64Z"/><path class="cls-2" d="m303.45,105.8h-18.77l-22.57-65.18h20.74l11.72,37.38,11.79-37.38h19.75l-22.66,65.18Z"/><path class="cls-2" d="m337.3,40.34h21.54l22.29,65.18h-20.5l-3.48-10.91h-20.41l-3.2,10.91h-18.62l22.38-65.18Zm3.57,39.69h11.94l-5.83-20.5-6.11,20.5Z"/><path class="cls-2" d="m481.48,56.61v48.91h-19.28v-48.91h-15.53v-15.99h50.34v15.99h-15.53Z"/><path class="cls-2" d="m423.72,105.34l-21.04-33.52v33.52h-17.69V41.09h18.81l19.18,30.73v-30.73h17.69v64.25h-16.95Z"/><path class="cls-2" d="m289.12,131.02h3.14l5.63,15.05-2.96.54-1.47-4.05h-5.81l-1.34,3.9h-2.96l5.77-15.43Zm-.67,9.13h4.19l-2.07-5.94-2.12,5.94Z"/><path class="cls-2" d="m312.19,146.45l-7.24-10.58v10.58h-2.74v-15.36h2.78l6.9,10.06v-10.06h2.74v15.36h-2.45Z"/><path class="cls-2" d="m327.21,146.45v-15.36h2.96v15.36h-2.96Z"/><path class="cls-2" d="m345.71,146.45l-7.24-10.58v10.58h-2.74v-15.36h2.78l6.9,10.06v-10.06h2.74v15.36h-2.45Z"/><path class="cls-2" d="m353.75,146.45v-15.36h2.96v15.36h-2.96Z"/><path class="cls-2" d="m368.87,133.65v12.8h-2.94v-12.8h-4.63v-2.56h11.93l.42,2.56h-4.79Z"/><path class="cls-2" d="m378.08,146.45v-15.36h2.96v15.36h-2.96Z"/><path class="cls-2" d="m391.22,131.02h3.14l5.63,15.05-2.96.54-1.47-4.05h-5.81l-1.34,3.9h-2.96l5.77-15.43Zm-.67,9.13h4.19l-2.07-5.94-2.12,5.94Z"/><path class="cls-2" d="m409.01,133.65v12.8h-2.94v-12.8h-4.63v-2.56h11.93l.42,2.56h-4.79Z"/><path class="cls-2" d="m418.22,146.45v-15.36h2.96v15.36h-2.96Z"/><path class="cls-2" d="m434.19,146.54h-2.98l-5.61-15.07,3.09-.53,4.12,11.78,4.01-11.62h3.09l-5.72,15.45Z"/><path class="cls-2" d="m444.23,146.45v-15.36h8.93v2.49h-6.01v3.67h4.63l.4,2.47h-5.03v4.23h6.23v2.49h-9.15Z"/><path class="cls-2" d="m471.63,146.74c-4.36,0-7.19-3.21-7.19-7.95s2.85-7.99,7.24-7.99,7.19,3.21,7.19,7.95-2.83,7.99-7.24,7.99Zm.02-13.49c-2.63,0-4.21,2.16-4.21,5.52s1.58,5.52,4.21,5.52,4.23-2.16,4.23-5.52-1.6-5.52-4.23-5.52Z"/><path class="cls-2" d="m486.68,133.65v3.92h4.32l.42,2.54h-4.74v6.34h-2.94v-15.36h8.59v2.56h-5.65Z"/><path class="cls-2" d="m510.48,133.65v12.8h-2.94v-12.8h-4.63v-2.56h11.93l.42,2.56h-4.79Z"/><path class="cls-2" d="m529.07,146.45v-6.66h-6.52v6.66h-2.96v-15.36h2.96v6.08h6.52v-6.08h2.96v15.36h-2.96Z"/><path class="cls-2" d="m537.51,146.45v-15.36h8.93v2.49h-6.01v3.67h4.63l.4,2.47h-5.03v4.23h6.23v2.49h-9.15Z"/><path class="cls-2" d="m293.53,172.3c-.69,0-1.38-.09-1.76-.16l-.4-2.56c.49.13.96.22,1.76.22,1.36,0,2.18-.62,2.18-2.27v-10.75h2.94v11.13c0,3.12-1.96,4.39-4.72,4.39Z"/><path class="cls-2" d="m307.78,156.71h3.14l5.63,15.05-2.96.54-1.47-4.05h-5.81l-1.34,3.9h-2.96l5.77-15.43Zm-.67,9.13h4.19l-2.07-5.94-2.12,5.94Z"/><path class="cls-2" d="m326.95,172.41c-4.45,0-7.26-3.14-7.26-7.93s2.87-7.97,7.35-7.97c1.74,0,3.07.4,4.21,1.11l-.42,2.78c-1-.76-2.18-1.36-3.67-1.36-2.78,0-4.45,2.09-4.45,5.41s1.74,5.39,4.5,5.39c1.45,0,2.72-.53,3.9-1.34l.4,2.58c-1.2.78-2.78,1.31-4.54,1.31Z"/><path class="cls-2" d="m342.31,172.43c-4.36,0-7.19-3.21-7.19-7.95s2.85-7.99,7.24-7.99,7.19,3.21,7.19,7.95-2.83,7.99-7.24,7.99Zm.02-13.49c-2.63,0-4.21,2.16-4.21,5.52s1.58,5.52,4.21,5.52,4.23-2.16,4.23-5.52-1.6-5.52-4.23-5.52Z"/><path class="cls-2" d="m358.83,172.14h-4.41v-15.36h4.48c3.45,0,5.1,1.56,5.1,3.99,0,1.6-.89,2.65-2.23,3.21,1.71.53,2.85,1.65,2.85,3.7,0,3.03-2.18,4.47-5.79,4.47Zm-.09-13.11h-1.49v4.07h1.36c1.74,0,2.65-.78,2.65-2.09,0-1.22-.73-1.98-2.52-1.98Zm.04,6.17h-1.54v4.7h1.58c1.87,0,2.96-.78,2.96-2.32s-1.05-2.38-3.01-2.38Z"/><path class="cls-2" d="m373.5,172.32c-1.87,0-3.47-.42-4.83-1.07l.45-2.69c1.29.76,2.89,1.36,4.43,1.36,1.36,0,2.29-.65,2.29-1.87,0-1.13-.53-1.6-2.76-2.56-2.98-1.22-4.19-2.2-4.19-4.59,0-2.72,2.09-4.3,4.96-4.3,1.74,0,2.94.36,4.05.93l-.45,2.67c-1.11-.73-2.43-1.2-3.63-1.2-1.47,0-2.12.71-2.12,1.65s.49,1.45,2.63,2.34c3.16,1.29,4.32,2.38,4.32,4.76,0,3.01-2.2,4.56-5.17,4.56Z"/><path class="cls-2" d="m393.33,159.34v3.92h4.32l.42,2.54h-4.74v6.34h-2.94v-15.36h8.59v2.56h-5.65Z"/><path class="cls-2" d="m409.87,172.43c-4.36,0-7.19-3.21-7.19-7.95s2.85-7.99,7.24-7.99,7.19,3.21,7.19,7.95-2.83,7.99-7.24,7.99Zm.02-13.49c-2.63,0-4.21,2.16-4.21,5.52s1.58,5.52,4.21,5.52,4.23-2.16,4.23-5.52-1.6-5.52-4.23-5.52Z"/><path class="cls-2" d="m427.97,172.41c-3.72,0-6.14-2.2-6.14-6.21v-9.42h2.94v9.26c0,2.34,1.07,3.81,3.23,3.81s3.27-1.38,3.27-3.74v-9.33h2.96v9.35c0,4.07-2.54,6.28-6.26,6.28Z"/><path class="cls-2" d="m449.5,172.14l-7.24-10.58v10.58h-2.74v-15.36h2.78l6.9,10.06v-10.06h2.74v15.36h-2.45Z"/><path class="cls-2" d="m462.3,172.14h-4.88v-15.36h4.88c5.34,0,8.1,3.14,8.1,7.66s-2.87,7.7-8.1,7.7Zm-.02-12.93h-1.91v10.51h1.87c3.23,0,5.16-1.65,5.16-5.25s-2.05-5.25-5.12-5.25Z"/><path class="cls-2" d="m479.2,156.71h3.14l5.63,15.05-2.96.54-1.47-4.05h-5.81l-1.34,3.9h-2.96l5.77-15.43Zm-.67,9.13h4.19l-2.07-5.94-2.12,5.94Z"/><path class="cls-2" d="m496.99,159.34v12.8h-2.94v-12.8h-4.63v-2.56h11.93l.42,2.56h-4.79Z"/><path class="cls-2" d="m506.21,172.14v-15.36h2.96v15.36h-2.96Z"/><path class="cls-2" d="m521.32,172.43c-4.36,0-7.19-3.21-7.19-7.95s2.85-7.99,7.24-7.99,7.19,3.21,7.19,7.95-2.83,7.99-7.24,7.99Zm.02-13.49c-2.63,0-4.21,2.16-4.21,5.52s1.58,5.52,4.21,5.52,4.23-2.16,4.23-5.52-1.6-5.52-4.23-5.52Z"/><path class="cls-2" d="m543.41,172.14l-7.24-10.58v10.58h-2.74v-15.36h2.78l6.9,10.06v-10.06h2.74v15.36h-2.45Z"/></svg>